<?xml version="1.0" encoding="UTF-8"?>
<svg id="Calque_2" data-name="Calque 2" xmlns="http://www.w3.org/2000/svg" viewBox="0 0 500 117.47">
  <defs>
    <style>
      .cls-1 {
        fill: #fff;
        stroke-width: 0px;
      }
    </style>
  </defs>
  <g id="Calque_1-2" data-name="Calque 1">
    <path class="cls-1" d="M182.69,92.55h12.71l13.98-65.59h-12.71l-13.98,65.59ZM144.56,14.25h48.05l2.54-12.2h-61.65l-19.32,90.5h13.6l8.77-40.8h43.35l2.54-11.95h-43.35l5.47-25.55ZM38.76,41.05l-15.71,27.21-15.9,27.54,15.53,21.66,15.9-27.54,17.02-29.49c.49-.85,1.41-1.38,2.39-1.38h33.65l5.18-24.28h-47.21c-4.47,0-8.63,2.4-10.87,6.27ZM206.59,2.81c-2.12,0-3.94.76-5.47,2.29-1.53,1.53-2.29,3.35-2.29,5.47s.76,3.94,2.29,5.47c1.53,1.53,3.35,2.29,5.47,2.29s3.94-.76,5.47-2.29c1.53-1.53,2.29-3.35,2.29-5.47s-.76-3.94-2.29-5.47c-1.52-1.52-3.35-2.29-5.47-2.29ZM12.27,16.61L0,37.86l15.53,21.66,17.76-30.77c1.59-2.75,4.55-4.47,7.74-4.47h58.04L104.26,0h-63.22c-11.83,0-22.85,6.36-28.77,16.61ZM361.67,26.96l-12.46,22.5c-7.46,13.9-12.96,24.41-16.53,31.52-1.61-16.27-2.63-26.14-3.05-29.62l-2.8-24.41h-13.6l9.79,67.37-2.67,4.7c-2.88,5.17-7.21,7.75-12.97,7.75h-6.36l-2.16,10.42c2.88.17,5.51.25,7.88.25,6.69,0,11.84-1.23,15.44-3.69,3.6-2.46,7.27-6.87,11-13.22l42.33-73.6h-13.85ZM458.97,42.15c3.94-3.77,8.58-5.66,13.92-5.66,4.07,0,7.35,1.12,9.85,3.37,2.5,2.25,3.79,5.57,3.88,9.98h13.35c.34-7.46-1.78-13.39-6.36-17.8-4.58-4.4-10.93-6.61-19.07-6.61-9.49,0-17.44,2.86-23.83,8.58-6.4,5.72-10.57,13.2-12.52,22.44-2.54,11.69-1.38,20.89,3.5,27.58,4.87,6.7,12.05,10.04,21.55,10.04,8.22,0,15.17-2.18,20.85-6.55,5.68-4.36,9.7-10.49,12.08-18.37h-12.97c-3.05,9.24-9.24,13.85-18.56,13.85-5.43,0-9.47-2.01-12.14-6.04-2.67-4.03-3.2-10.06-1.59-18.11,1.44-7.37,4.13-12.94,8.07-16.72ZM415.05,25.44c-8.73,0-16.14,3.48-22.25,10.42l1.91-8.9h-12.2l-13.98,65.59h12.71l7.88-36.99c1.27-6.18,3.9-10.89,7.88-14.11,3.98-3.22,8.39-4.83,13.22-4.83,8.81,0,12.12,5.21,9.91,15.64l-8.51,40.29h12.71l8.64-39.79c1.95-9.07,1.27-15.89-2.03-20.46-3.3-4.58-8.6-6.87-15.89-6.87ZM300.91,62.23c-2.88-3.51-8.14-5.99-15.76-7.43l-6.23-1.02c-4.24-.85-7.21-2.03-8.9-3.56-1.7-1.53-2.25-3.73-1.65-6.61.51-2.54,2.04-4.55,4.58-6.04,2.54-1.48,5.89-2.23,10.04-2.23,4.75,0,8.2.91,10.36,2.73,2.16,1.82,2.9,4.94,2.23,9.34h12.33c.85-7.12-.7-12.56-4.64-16.33-3.94-3.77-10.32-5.66-19.13-5.66-7.71,0-14.03,1.46-18.94,4.39-4.92,2.92-7.92,7.1-9.02,12.52-2.54,11.95,3.14,19.2,17.03,21.74l5.85,1.02c5,.85,8.33,2.1,9.98,3.75,1.65,1.65,2.14,4.05,1.46,7.18-1.1,5.43-6.1,8.14-15,8.14-5.51,0-9.41-.95-11.69-2.86-2.29-1.91-3.26-5.1-2.92-9.6h-12.71c-.85,7.71.91,13.39,5.27,17.03,4.36,3.64,11.33,5.47,20.91,5.47,8.56,0,15.23-1.55,20.02-4.64,4.78-3.09,7.73-7.27,8.83-12.52,1.35-6.36.59-11.29-2.29-14.81ZM231.37,74.76l7.88-37.37h13.35l2.16-10.42h-13.22l3.94-18.81h-12.71l-3.94,18.81h-10.55l-2.29,10.42h10.55l-7.88,37.24c-1.36,5.93-.68,10.47,2.03,13.6,2.71,3.14,7.16,4.7,13.35,4.7,1.69,0,3.94-.13,6.74-.38l2.16-10.17h-5.72c-4.92,0-6.87-2.54-5.85-7.63Z"/>
  </g>
</svg>